<?xml version="1.0" encoding="UTF-8" standalone="no"?>
<!-- Created with Inkscape (http://www.inkscape.org/) -->

<svg
   xmlns:osb="http://www.openswatchbook.org/uri/2009/osb"
   xmlns:dc="http://purl.org/dc/elements/1.1/"
   xmlns:cc="http://creativecommons.org/ns#"
   xmlns:rdf="http://www.w3.org/1999/02/22-rdf-syntax-ns#"
   xmlns:svg="http://www.w3.org/2000/svg"
   xmlns="http://www.w3.org/2000/svg"
   xmlns:xlink="http://www.w3.org/1999/xlink"
   xmlns:sodipodi="http://sodipodi.sourceforge.net/DTD/sodipodi-0.dtd"
   xmlns:inkscape="http://www.inkscape.org/namespaces/inkscape"
   width="210mm"
   height="297mm"
   viewBox="0 0 744.09448819 1052.3622047"
   id="svg3381"
   version="1.1"
   inkscape:version="0.91 r13725"
   sodipodi:docname="1.svg">
  <defs
     id="defs3383">
    <linearGradient
       id="linearGradient5900"
       osb:paint="solid">
      <stop
         style="stop-color:#000000;stop-opacity:1;"
         offset="0"
         id="stop5902" />
    </linearGradient>
    <filter
       inkscape:collect="always"
       style="color-interpolation-filters:sRGB"
       id="filter4550"
       x="-0.024250001"
       width="1.0484999"
       y="-0.023755101"
       height="1.0475101">
      <feGaussianBlur
         inkscape:collect="always"
         stdDeviation="4.4671053"
         id="feGaussianBlur4552" />
    </filter>
    <linearGradient
       inkscape:collect="always"
       xlink:href="#linearGradient4554"
       id="linearGradient4560"
       x1="306.57892"
       y1="314.20432"
       x2="307.89474"
       y2="547.09906"
       gradientUnits="userSpaceOnUse"
       gradientTransform="translate(-1.3157895,-6.5789474)" />
    <linearGradient
       inkscape:collect="always"
       id="linearGradient4554">
      <stop
         style="stop-color:#ffffff;stop-opacity:1;"
         offset="0"
         id="stop4556" />
      <stop
         style="stop-color:#ffffff;stop-opacity:0;"
         offset="1"
         id="stop4558" />
    </linearGradient>
    <filter
       inkscape:collect="always"
       style="color-interpolation-filters:sRGB"
       id="filter4566"
       x="-0.018210782"
       width="1.0364217"
       y="-0.035185486"
       height="1.070371">
      <feGaussianBlur
         inkscape:collect="always"
         stdDeviation="2.6058106"
         id="feGaussianBlur4568" />
    </filter>
  </defs>
  <sodipodi:namedview
     id="base"
     pagecolor="#ffffff"
     bordercolor="#666666"
     borderopacity="1.0"
     inkscape:pageopacity="0.0"
     inkscape:pageshadow="2"
     inkscape:zoom="0.73512253"
     inkscape:cx="-246.47396"
     inkscape:cy="696.76505"
     inkscape:document-units="px"
     inkscape:current-layer="layer1"
     showgrid="false"
     showguides="false"
     inkscape:window-width="1440"
     inkscape:window-height="851"
     inkscape:window-x="0"
     inkscape:window-y="1"
     inkscape:window-maximized="1">
    <inkscape:grid
       type="xygrid"
       id="grid3493" />
  </sodipodi:namedview>
  <metadata
     id="metadata3386">
    <rdf:RDF>
      <cc:Work
         rdf:about="">
        <dc:format>image/svg+xml</dc:format>
        <dc:type
           rdf:resource="http://purl.org/dc/dcmitype/StillImage" />
        <dc:title />
      </cc:Work>
    </rdf:RDF>
  </metadata>
  <g
     inkscape:label="Calque 1"
     inkscape:groupmode="layer"
     id="layer1">
    <ellipse
       style="fill:#10ceaa;fill-opacity:1;stroke:#ff1818;stroke-width:0;stroke-miterlimit:4;stroke-dasharray:none;stroke-opacity:1;filter:url(#filter4550)"
       id="path3645"
       cx="333.03824"
       cy="441.97992"
       rx="221.05263"
       ry="225.6579" />
    <path
       style="fill:url(#linearGradient4560);fill-opacity:1;stroke:none;stroke-width:0;stroke-miterlimit:4;stroke-dasharray:none;stroke-opacity:1;filter:url(#filter4566)"
       d="m 317.76233,403.67886 a 171.71051,171.71053 0 0 0 -171.70898,171.70899 171.71051,171.71053 0 0 0 0.1543,4.36914 189.47368,126.31579 0 0 1 170.89844,-72.13086 189.47368,126.31579 0 0 1 172.06445,73.79492 171.71051,171.71053 0 0 0 0.30273,-6.0332 171.71051,171.71053 0 0 0 -171.71094,-171.70899 z"
       id="path4543"
       inkscape:connector-curvature="0"
       transform="matrix(1.1267157,0,0,1.1174141,-27.747226,-217.73839)" />
    <path
       style="fill:#782121;fill-opacity:0.91457286;stroke:none;stroke-width:0;stroke-miterlimit:4;stroke-dasharray:none;stroke-opacity:1"
       d="m 264.57182,367.89286 a 26.30406,37.579721 0 0 0 -26.30386,37.57966 26.30406,37.579721 0 0 0 1.32861,11.64392 26.41024,34.105572 0 0 1 24.73042,-22.25927 26.41024,34.105572 0 0 1 24.99288,23.21332 26.30406,37.579721 0 0 0 1.55582,-12.59797 26.30406,37.579721 0 0 0 -26.30387,-37.57966 z"
       id="path4570"
       inkscape:connector-curvature="0" />
    <path
       style="fill:#782121;fill-opacity:0.91457286;stroke:none;stroke-width:0;stroke-miterlimit:4;stroke-dasharray:none;stroke-opacity:1"
       d="m 397.39989,369.20802 a 27.375442,39.184498 0 0 0 -27.37524,39.18443 27.375442,39.184498 0 0 0 1.38274,12.14116 27.485947,35.561991 0 0 1 25.73769,-23.20981 27.485947,35.561991 0 0 1 26.01086,24.20459 27.375442,39.184498 0 0 0 1.61919,-13.13594 27.375442,39.184498 0 0 0 -27.37524,-39.18443 z"
       id="path4570-2"
       inkscape:connector-curvature="0" />
    <path
       style="opacity:1;fill:#f2f2f2;fill-opacity:1;stroke:none;stroke-width:0.40000001;stroke-miterlimit:4;stroke-dasharray:none;stroke-opacity:1"
       d="m 238.39401,484.50714 a 87.315128,100.6467 0 0 0 87.1408,94.99936 87.315128,100.6467 0 0 0 87.07069,-94.99936 l -174.21149,0 z"
       id="path4241"
       inkscape:connector-curvature="0" />
    <path
       style="fill:none;fill-rule:evenodd;stroke:#000000;stroke-width:1px;stroke-linecap:butt;stroke-linejoin:miter;stroke-opacity:1"
       d="m 306.41294,540.24548 0,0 0,0 0,0"
       id="path4252"
       inkscape:connector-curvature="0"
       sodipodi:nodetypes="cccc" />
  </g>
</svg>
