<?xml version="1.0" encoding="UTF-8" standalone="no"?>
<!-- Created with Inkscape (http://www.inkscape.org/) -->

<svg
   xmlns:dc="http://purl.org/dc/elements/1.1/"
   xmlns:cc="http://creativecommons.org/ns#"
   xmlns:rdf="http://www.w3.org/1999/02/22-rdf-syntax-ns#"
   xmlns:svg="http://www.w3.org/2000/svg"
   xmlns="http://www.w3.org/2000/svg"
   xmlns:xlink="http://www.w3.org/1999/xlink"
   xmlns:sodipodi="http://sodipodi.sourceforge.net/DTD/sodipodi-0.dtd"
   xmlns:inkscape="http://www.inkscape.org/namespaces/inkscape"
   width="210mm"
   height="297mm"
   viewBox="0 0 744.09448819 1052.3622047"
   id="svg2"
   version="1.1"
   inkscape:version="0.91 r13725"
   sodipodi:docname="smileynrv.svg">
  <defs
     id="defs4">
    <linearGradient
       inkscape:collect="always"
       id="linearGradient4554">
      <stop
         style="stop-color:#ffffff;stop-opacity:1;"
         offset="0"
         id="stop4556" />
      <stop
         style="stop-color:#ffffff;stop-opacity:0;"
         offset="1"
         id="stop4558" />
    </linearGradient>
    <filter
       inkscape:collect="always"
       style="color-interpolation-filters:sRGB"
       id="filter4550"
       x="-0.02425"
       width="1.0485"
       y="-0.023755102"
       height="1.0475102">
      <feGaussianBlur
         inkscape:collect="always"
         stdDeviation="4.4671053"
         id="feGaussianBlur4552" />
    </filter>
    <linearGradient
       inkscape:collect="always"
       xlink:href="#linearGradient4554"
       id="linearGradient4560"
       x1="306.57892"
       y1="314.20432"
       x2="307.89474"
       y2="547.09906"
       gradientUnits="userSpaceOnUse"
       gradientTransform="translate(-1.3157895,-6.5789474)" />
    <filter
       inkscape:collect="always"
       style="color-interpolation-filters:sRGB"
       id="filter4566"
       x="-0.018210782"
       width="1.0364216"
       y="-0.035185486"
       height="1.070371">
      <feGaussianBlur
         inkscape:collect="always"
         stdDeviation="2.6058106"
         id="feGaussianBlur4568" />
    </filter>
  </defs>
  <sodipodi:namedview
     id="base"
     pagecolor="#ffffff"
     bordercolor="#666666"
     borderopacity="1.0"
     inkscape:pageopacity="0.0"
     inkscape:pageshadow="2"
     inkscape:zoom="0.51"
     inkscape:cx="372.04724"
     inkscape:cy="496.40835"
     inkscape:document-units="px"
     inkscape:current-layer="layer1"
     showgrid="false"
     inkscape:window-width="1440"
     inkscape:window-height="851"
     inkscape:window-x="0"
     inkscape:window-y="1"
     inkscape:window-maximized="1" />
  <metadata
     id="metadata7">
    <rdf:RDF>
      <cc:Work
         rdf:about="">
        <dc:format>image/svg+xml</dc:format>
        <dc:type
           rdf:resource="http://purl.org/dc/dcmitype/StillImage" />
        <dc:title></dc:title>
      </cc:Work>
    </rdf:RDF>
  </metadata>
  <g
     inkscape:label="Calque 1"
     inkscape:groupmode="layer"
     id="layer1">
    <ellipse
       style="fill:#ff6711;fill-opacity:0.91457286;stroke:#ff1818;stroke-width:0;stroke-miterlimit:4;stroke-dasharray:none;stroke-opacity:1;filter:url(#filter4550)"
       id="path3645"
       cx="319.73682"
       cy="608.2832"
       rx="221.05263"
       ry="225.6579" />
    <path
       style="fill:url(#linearGradient4560);fill-opacity:1;stroke:none;stroke-width:0;stroke-miterlimit:4;stroke-dasharray:none;stroke-opacity:1;filter:url(#filter4566)"
       d="m 317.76233,403.67886 a 171.71051,171.71053 0 0 0 -171.70898,171.70899 171.71051,171.71053 0 0 0 0.1543,4.36914 189.47368,126.31579 0 0 1 170.89844,-72.13086 189.47368,126.31579 0 0 1 172.06445,73.79492 171.71051,171.71053 0 0 0 0.30273,-6.0332 171.71051,171.71053 0 0 0 -171.71094,-171.70899 z"
       id="path4543"
       inkscape:connector-curvature="0"
       transform="matrix(1.1146237,0,0,1.1178245,-34.449519,-50.79764)" />
    <ellipse
       style="fill:#782121;fill-opacity:0.91457286;stroke:none;stroke-width:0;stroke-miterlimit:4;stroke-dasharray:none;stroke-opacity:1"
       id="path4570"
       cx="265.13159"
       cy="572.75696"
       rx="24.342106"
       ry="36.184208" />
    <ellipse
       style="fill:#782121;fill-opacity:0.91457286;stroke:none;stroke-width:0;stroke-miterlimit:4;stroke-dasharray:none;stroke-opacity:1"
       id="path4570-2"
       cx="371.05264"
       cy="573.41486"
       rx="24.342106"
       ry="36.184208" />
    <path
       style="fill:#803300;fill-opacity:0.91457286;stroke:none;stroke-width:0;stroke-miterlimit:4;stroke-dasharray:none;stroke-opacity:1"
       id="path4600"
       transform="matrix(-0.97018964,-0.24234698,0.6226204,-0.78252402,0,0)"
       inkscape:transform-center-x="-98.781032"
       inkscape:transform-center-y="-48.211155"
       sodipodi:type="arc"
       sodipodi:cx="-571.60388"
       sodipodi:cy="-495.39676"
       sodipodi:rx="48.379299"
       sodipodi:ry="16.605452"
       sodipodi:start="0"
       sodipodi:end="3.9508303"
       d="m -523.22458,-495.39676 a 48.379299,16.605452 0 0 1 -36.22956,16.07328 48.379299,16.605452 0 0 1 -54.42658,-8.00015 48.379299,16.605452 0 0 1 8.89268,-20.09151 l 33.38416,12.01838 z" />
    <path
       style="fill:#803300;fill-opacity:0.91457286;stroke:none;stroke-width:0;stroke-miterlimit:4;stroke-dasharray:none;stroke-opacity:1"
       id="path4600-5"
       transform="matrix(-0.97920432,0.20287654,0.31072003,-0.95050148,0,0)"
       inkscape:transform-center-x="-75.396746"
       inkscape:transform-center-y="-77.361714"
       sodipodi:type="arc"
       sodipodi:cx="-611.47583"
       sodipodi:cy="-683.09381"
       sodipodi:rx="49.455002"
       sodipodi:ry="15.681196"
       sodipodi:start="5.1034398"
       sodipodi:end="2.7146043"
       d="m -592.62556,-697.59122 a 49.455002,15.681196 0 0 1 30.25866,16.34928 49.455002,15.681196 0 0 1 -41.50785,13.643 49.455002,15.681196 0 0 1 -52.61587,-9.00079 l 45.01479,-6.49408 z" />
    <path
       style="fill:#803300;fill-opacity:0.91457286;stroke:none;stroke-width:0;stroke-miterlimit:4;stroke-dasharray:none;stroke-opacity:1"
       d="m 317.15868,670.90574 a 88.815788,57.894737 0 0 0 -88.65429,55.79101 95.058945,56.892475 0 0 1 86.79492,-33.79687 95.058945,56.892475 0 0 1 90.39648,39.51562 88.815788,57.894737 0 0 0 0.2793,-3.61328 88.815788,57.894737 0 0 0 -88.81641,-57.89648 z"
       id="path4617"
       inkscape:connector-curvature="0" />
  </g>
</svg>
